/* XPM */
static char *_00812c6706248bbcf83725dfabb5e09nwQmBwgSoV2aOhuK[] = {
/* columns rows colors chars-per-pixel */
"32 32 10 1 ",
"  c None",
". c #2D241B",
"X c #504131",
"o c #644A28",
"O c #694D2A",
"+ c #765934",
"@ c #65656F",
"# c #86663F",
"$ c #9F7949",
"% c #888894",
/* pixels */
"                                ",
"                                ",
"                                ",
"                                ",
"                                ",
"             .....              ",
"          ...$$$$$...           ",
"         .$$$+++++$$$.          ",
"        .$+++ooooo+++$.         ",
"        .$++ooooooo++$.         ",
"        .#+++ooooo+++#.         ",
"       .OX###+++++###XO.        ",
"       .OOXXX#####XXXOO.        ",
"       .O#o$OXXXXXOOo#O.        ",
"      .%.$o$#OOo$##$o$.%.       ",
"      .@%...###o$$$...%@.       ",
"      ..@%%%..#o$..%%%@..       ",
"      .O.@@@%%...%%@@@.O.       ",
"      .O$...@@%%%@@...#O.       ",
"      .O#$o$..@@@..$o$#O.       ",
"      ...#o###...##$o$...       ",
"       .%.o$###o$###o.%.        ",
"        .%..$$$o$##..%.         ",
"        .@@%..$o$..%@@.         ",
"         ..@@%...%@@..          ",
"           ..@@@@@..            ",
"             .....              ",
"                                ",
"                                ",
"                                ",
"                                ",
"                                "
};
