/* XPM */
static char *Book_40x40[] = {
/* columns rows colors chars-per-pixel */
"40 40 89 1 ",
"  c #010202",
". c #080807",
"X c #070A0A",
"o c #0B0D0C",
"O c #0B100F",
"+ c #0C1311",
"@ c #0F1815",
"# c #131212",
"$ c #101A17",
"% c #141D1B",
"& c #1C1C1A",
"* c #16221E",
"= c #1B211E",
"- c #21201F",
"; c #172421",
": c #182622",
"> c #1B2A26",
", c #1D2E29",
"< c #1F312B",
"1 c #232220",
"2 c #282725",
"3 c #2A2827",
"4 c #2D2B29",
"5 c #302E2C",
"6 c #21332E",
"7 c #33312F",
"8 c #233631",
"9 c #243933",
"0 c #2E3934",
"q c #2B3F39",
"w c #373432",
"e c #393735",
"r c #313D38",
"t c #2B433C",
"y c #30403A",
"u c #3A413D",
"i c #2F4740",
"p c #2E4941",
"a c #324D45",
"s c #35554C",
"d c #3B5E54",
"f c #3D6056",
"g c #3E6359",
"h c #444440",
"j c #484542",
"k c #494845",
"l c #4F4E4B",
"z c #514E4A",
"x c #55524E",
"c c #555450",
"v c #5E5A56",
"b c #5F5C58",
"n c #635E5A",
"m c #40665B",
"M c #41685D",
"N c #68645F",
"B c #446D61",
"V c #477165",
"C c #487266",
"Z c #497468",
"A c #4D7A6D",
"S c #4F7E71",
"D c #507F71",
"F c #6B6561",
"G c #6E6964",
"H c #716C67",
"J c #756F6B",
"K c #77716C",
"L c #837D77",
"P c #857F79",
"I c #528375",
"U c #558678",
"Y c #56897B",
"T c #588D7E",
"R c #89837D",
"E c #5A8F80",
"W c #5B9182",
"Q c #8F8882",
"! c #938B85",
"~ c #978E88",
"^ c #97908A",
"/ c #AEA59E",
"( c #B6ADA5",
") c #BCB2AB",
"_ c #C5BBB3",
"` c #C8BEB6",
"' c #CBC0B8",
"] c #E3D8CE",
"[ c None",
/* pixels */
"[[[[[[[[[[[[[[[[[[[[[[[[[[[[[[[[[[[[[[[[",
"[[[[[[[[[[[[[[[[[[[[[[[[[[[[[[[[[[[[[[[[",
"[[[[[[[[[[[[[[[[[[[[[[[[[[[[[[[[[[[[[[[[",
"[[[[[[[[[[[[[[[[[[[[[[[[[[[[[[[[[[[[[[[[",
"[[[[[[[[[[[[[[[[[[[[[[[[[[[[[[[[[[[[[[[[",
"[[[[[[[[[[[[[[[[[[[[[[[[[[[[[[[[[[[[[[[[",
"[[[[[[[[[[[[[[[[[[[[[[[[[[[[[[[[[[[[[[[[",
"[[[[[[[[[[[[[[[[[[[[[[[[[[[[[[[[[[[[[[[[",
"[[[[[[[[[[[[[[ [[[[[[[[[[[[[[[[[[[[[[[[[",
"[[[[[[[[[[[[.OO&444-&&&##o.[[[[[[[[[[[[[",
"[[[[[[[[[[[ @;K)`'`_))_((/~7[[[[[[[[[[[[",
"[[[[[[[[[[[ ;&jzczvGnnNHGG_L [[[[[[[[[[[",
"[[[[[[[[[[[X6;mmMmdfffdfd9G^X[[[[[[[[[[[",
"[[[[[[[[[[[o6:IWWWWWWWWWWmxRo[[[[[[[[[[[",
"[[[[[[[[[[[o6*IEWICTWTYTEfxQo[[[[[[[[[[[",
"[[[[[[[[[[[X,*IWWs+dYttTWBjRo[[[[[[[[[[[",
"[[[[[[[[[[[X,:IIYq <m.+AWAhHX[[[[[[[[[[[",
"[[[[[[[[[[[X>,A>9t >t @AWIuJo[[[[[[[[[[[",
"[[[[[[[[[[[+><BXOgtgm+9dpAuGo[[[[[[[[[[[",
"[[[[[[[[[[[+>8I9,CdtdBD9$A0v#[[[[[[[[[[[",
"[[[[[[[[[[[O6,IUg;o X>mMBI0G#[[[[[[[[[[[",
"[[[[[[[[[[[+6,A9%zv eF3;sI0R&[[[[[[[[[[[",
"[[[[[[[[[[[+,>A;5_L j]Q#>Ir!1[[[[[[[[[[[",
"[[[[[[[[[[[o,>UZ>5w 1k=9AYq~5[[[[[[[[[[[",
"[[[[[[[[[[[o8;SWSs>*;9BYWTtL3[[[[[[[[[[[",
"[[[[[[[[[[[X8*AWEWTIUTWWETtG5[[[[[[[[[[[",
"[[[[[[[[[[[X6%ZWEEWWWWEEEEiF2[[[[[[[[[[[",
"[[[[[[[[[[[X>*VYYUIYIUYTEWan4[[[[[[[[[[[",
"[[[[[[[[[[[[Oo;><>*>:>,qqt=oX[[[[[[[[[[[",
"[[[[[[[[[[[[[[[[[[[[[[[[[[[[[[[[[[[[[[[[",
"[[[[[[[[[[[[[[[[[[[[[[[[[[[[[[[[[[[[[[[[",
"[[[[[[[[[[[[[[[[[[[[[[[[[[[[[[[[[[[[[[[[",
"[[[[[[[[[[[[[[[[[[[[[[[[[[[[[[[[[[[[[[[[",
"[[[[[[[[[[[[[[[[[[[[[[[[[[[[[[[[[[[[[[[[",
"[[[[[[[[[[[[[[[[[[[[[[[[[[[[[[[[[[[[[[[[",
"[[[[[[[[[[[[[[[[[[[[[[[[[[[[[[[[[[[[[[[[",
"[[[[[[[[[[[[[[[[[[[[[[[[[[[[[[[[[[[[[[[[",
"[[[[[[[[[[[[[[[[[[[[[[[[[[[[[[[[[[[[[[[[",
"[[[[[[[[[[[[[[[[[[[[[[[[[[[[[[[[[[[[[[[[",
"[[[[[[[[[[[[[[[[[[[[[[[[[[[[[[[[[[[[[[[["
};
