/* XPM */
static char *dead[] = {
/* columns rows colors chars-per-pixel */
"40 40 113 2 ",
"   c #010202",
".  c #050807",
"X  c #060A08",
"o  c #090D0B",
"O  c #0C110F",
"+  c #0D1412",
"@  c #0F1815",
"#  c #121513",
"$  c #121916",
"%  c #191817",
"&  c #131D1A",
"*  c #1B1C1B",
"=  c #16221E",
"-  c #1F201F",
";  c #21211F",
":  c #172521",
">  c #182622",
",  c #1C2A26",
"<  c #1E2E29",
"1  c #1F302B",
"2  c #242423",
"3  c #282725",
"4  c #292927",
"5  c #2A2A29",
"6  c #302F2C",
"7  c #21332E",
"8  c #33312F",
"9  c #243631",
"0  c #263A34",
"q  c #363431",
"w  c #393634",
"e  c #3B3936",
"r  c #3E3C39",
"t  c #423F3C",
"y  c #2C423C",
"u  c #32443E",
"i  c #43413E",
"p  c #2F4740",
"a  c #2F4941",
"s  c #364741",
"d  c #324C44",
"f  c #3F4B46",
"g  c #3A4F48",
"h  c #37534B",
"j  c #38544C",
"k  c #3B5D53",
"l  c #3D6157",
"z  c #3E6359",
"x  c #464440",
"c  c #484642",
"v  c #434B46",
"b  c #4D4A46",
"n  c #504D4A",
"m  c #54514D",
"M  c #555550",
"N  c #595551",
"B  c #5C5955",
"V  c #625E59",
"C  c #40665C",
"Z  c #42695E",
"A  c #64625D",
"S  c #68645F",
"D  c #456F63",
"F  c #467064",
"G  c #487266",
"H  c #497468",
"J  c #4C796C",
"K  c #507F71",
"L  c #6B6661",
"P  c #6D6964",
"I  c #716C67",
"U  c #716E69",
"Y  c #75716C",
"T  c #79746F",
"R  c #7D7772",
"E  c #7D7973",
"W  c #827C77",
"Q  c #867F7A",
"!  c #528275",
"~  c #548778",
"^  c #578B7C",
"/  c #588C7D",
"(  c #8A837D",
")  c #5A9080",
"_  c #8D8781",
"`  c #918A84",
"'  c #97908A",
"]  c #9A938C",
"[  c #A39B94",
"{  c #A79F98",
"}  c #ABA39C",
"|  c #B4ABA4",
" . c #BEB4AD",
".. c #C0B7AF",
"X. c #C4BBB3",
"o. c #C8BEB6",
"O. c #CDC3BA",
"+. c #D0C6BD",
"@. c #D4CAC1",
"#. c #D9CEC5",
"$. c #DAD0C7",
"%. c #DDD2C9",
"&. c #E1D6CD",
"*. c #E3D8CF",
"=. c #E6DAD1",
"-. c #EADED5",
";. c #ECE0D7",
":. c #EEE3D9",
">. c #F2E6DC",
",. c #F5E9DF",
"<. c #F6EAE0",
"1. c #F8ECE2",
"2. c None",
/* pixels */
"2.2.2.2.2.2.2.2.2.2.2.2.2.2.2.2.2.2.2.2.2.2.2.2.2.2.2.2.2.2.2.2.2.2.2.2.2.2.2.2.",
"2.2.2.2.2.2.2.2.2.2.2.2.2.2.2.2.2.2.2.2.2.2.2.2.2.2.2.2.2.2.2.2.2.2.2.2.2.2.2.2.",
"2.2.2.2.2.2.2.2.2.2.2.2.2.2.2.2.2.2.2.2.2.2.2.2.2.2.2.2.2.2.2.2.2.2.2.2.2.2.2.2.",
"2.2.2.2.2.2.2.2.2.2.2.2.2.2.2.2.2.2.2.    X .   2.2.2.2.2.2.2.2.2.2.2.2.2.2.2.2.",
"2.2.2.2.2.2.2.2.2.2.2.2.2.2.2.2.2.2.  o < y 0 &     X O . 2.2.2.2.2.2.2.2.2.2.2.",
"2.2.2.2.2.2.2.2.2.2.2.2.2.2.2.2.  . : y j j j d : . 9 p 7 . 2.2.2.  2.2.2.2.2.2.",
"2.2.2.2.2.2.2.2.2.2.2.2.2.2.2.  X 9 h h j h h j d + : h h :   2.2.    2.2.2.2.2.",
"2.2.2.2.2.2.2.2.2.2.2.2.2.2.2.. 9 h h h h h h h h 0 @ s h p $         2.2.2.2.2.",
"2.2.2.2.2.2.2.2.2.2.2.2.2.2.  , h h h h h h h h h h a h h h p , : > X 2.2.2.2.2.",
"2.2.2.2.2.2.2.2.2.2.2.2.2.  & h h h h h h h h h h h h h h h h h h s o 2.2.2.2.2.",
"2.2.2.2.2.2.2.2.2.2.2.2.  + p h h h h h h h h h h h h h h y y y p < . 2.2.2.2.2.",
"2.2.2.2.2.2.2.2.2.2.2.  . = s h h h h h h h h h h y 7 s 0 X . o o     2.2.2.2.2.",
"2.2.2.2.2.2.2.2.2.2.2.    o : h h h h h h h h h s + # = y o   2.2.2.2.2.2.2.2.2.",
"2.2.2.2.2.2.2.2.2.2.    c I O s h h h h h h h h , ; ` * 1 <   2.2.2.2.2.2.2.2.2.",
"2.2.2.2.2.2.2.2.2..   B &...% 0 j h h h h h h s o P >.R O 0 +   2.2.2.2.2.2.2.2.",
"2.2.2.2.2.2.2.2.2.  B *.<.#.3 7 j h j h h h h 0 + | 1.%.i = <   2.2.2.2.2.2.2.2.",
"2.2.2.2.2.2.2.2.  q @.1.<.-.x : h h h h j h j , 5 $.,.<.} % 1 O 2.2.2.2.2.2.2.2.",
"2.2.2.2.2.2.2.    n | *.<.<.B & h h h h h h h > c ;.,.,.>.S + $   2.2.2.2.2.2.2.",
"2.2.2.2.    O = < : $ w ( O.L @ h j j j j h j > t ;.,.=.O.T X X       2.2.2.2.2.",
"2.2.2.  @ h H ^ ) ~ C 0 & - $ o 1 0 y p d g d < 2 ` I t * $ > 0 p p , O   2.2.2.",
"2.2.  = k G D k k J ) ) K C p < & + o O + @ # X X $ , 0 k H J z h d y , o   2.2.",
"2.  X , < < , O 5 v s h k J ) ~ ! J D l h d g s k J ~ ! Z d v A % & 0 y 7 +   2.",
"2.  & y d h s O Q *.X.{ Y M f g h z F G D F z C j s u s L } #.;.M & h h j y X 2.",
"2.X y h h h 0 * X.<.<.<. .T L ` ' T L M B U / Q ] U B [ ;.1.,.,.[ # y h h h $   ",
"2.o s h h h 1 6 %.<.<.` 2 * * w ..<.,.-.:.>.<.1.X.w & 2 B #.<.<.@.2 0 j h h >   ",
"2.O d j h h 4 u -.1.#.q 2 5 5 * B :.<.<.<.<.<.-.B * 5 5 % U >.,.*.q , j h j ,   ",
"  O d h h h , x -.1.{ - 5 5 5 - c -.<.*.*.<.<.@.6 2 5 5 2 r *.<.=.e < h h h =   ",
"2.o p h h h : b -.1._ * 5 5 5 * L <...b x } <.O.3 3 5 5 2 e %.<.*.q 1 j h d +   ",
"2.. 9 h h h > b -.1.[ * 5 5 4 * [ %.t * - 5 @.$.q 2 5 5 * n -.<.%.5 7 j h 7 . 2.",
"2.  @ g j j < w *.1.#.i % 2 % N *.' # - 2 % [ <.U % - * 5 | <.<. .& y j y o   2.",
"2.2.  , h j 0 %  .1.<.X.L x S O.1.` 2 x q 5  .<.&.] P W ..>.<.<.( + s y +   2.2.",
"2.2.2.. = y y + V -.<.<.<.=.>.<.<.-.o.-.#.O.>.<.<.<.,.<.1.<.:.{ 2 o @ X   2.2.2.",
"2.2.2.2.  X o . o b ( @.,.,.,.,.,.,.<.,.<.<.,.,.<.,.,.;..._ N #       2.2.2.2.2.",
"2.2.2.2.2.2.2.        q  .,.>.o.-.*.*.*.%.-.X.&.X.>.,.| ; .   2.2.2.2.2.2.2.2.2.",
"2.2.2.2.2.2.2.2.2.2.2.  q @.{ 3 T x S V b Q 3 b ; ..=.N   2.2.2.2.2.2.2.2.2.2.2.",
"2.2.2.2.2.2.2.2.2.2.2.2.  8 ;   .   . . . o       w t o 2.2.2.2.2.2.2.2.2.2.2.2.",
"2.2.2.2.2.2.2.2.2.2.2.2.2.    2.2.2.2.2.2.2.2.2.2.    2.2.2.2.2.2.2.2.2.2.2.2.2.",
"2.2.2.2.2.2.2.2.2.2.2.2.2.2.2.2.2.2.2.2.2.2.2.2.2.2.2.2.2.2.2.2.2.2.2.2.2.2.2.2.",
"2.2.2.2.2.2.2.2.2.2.2.2.2.2.2.2.2.2.2.2.2.2.2.2.2.2.2.2.2.2.2.2.2.2.2.2.2.2.2.2.",
"2.2.2.2.2.2.2.2.2.2.2.2.2.2.2.2.2.2.2.2.2.2.2.2.2.2.2.2.2.2.2.2.2.2.2.2.2.2.2.2."
};
