/* XPM */
static char *enemy[] = {
/* columns rows colors chars-per-pixel */
"40 40 77 1 ",
"  c #0D0D16",
". c #0F0F18",
"X c #0F1019",
"o c #13131C",
"O c #171720",
"+ c #1B1B24",
"@ c #1F1F28",
"# c #23232C",
"$ c #2B2B34",
"% c #33333B",
"& c #373740",
"* c #3C3B44",
"= c #403F48",
"- c #44444C",
"; c #4C4B53",
": c #504F57",
"> c #54535C",
", c #585760",
"< c #5C5B63",
"1 c #64636B",
"2 c #696770",
"3 c #6C6B73",
"4 c #706F76",
"5 c #716F78",
"6 c #75747B",
"7 c #79787F",
"8 c #7D7C83",
"9 c #807F87",
"0 c #818087",
"q c #85848B",
"w c #88868D",
"e c #888690",
"r c #8D8B92",
"t c #908E97",
"y c #929197",
"u c #94939A",
"i c #99979F",
"p c #9A999F",
"a c #9997A0",
"s c #9D9CA2",
"d c #A09EA6",
"f c #A1A1A6",
"g c #A5A3AA",
"h c #A9A7AE",
"j c #ABAAAF",
"k c #ACABB1",
"l c #B1AFB6",
"z c #B2B1B7",
"x c #B5B3BA",
"c c #B9B6BE",
"v c #B9B8BD",
"b c #BDBAC2",
"n c #C1BEC6",
"m c #C2BFC8",
"M c #C2C1C6",
"N c #C5C3CB",
"B c #C9C6CE",
"V c #CAC8CE",
"C c #CDCAD1",
"Z c #D1CFD5",
"A c #D2D1D6",
"S c #D6D4DA",
"D c #D9D7DC",
"F c #DBD9DE",
"G c #DEDCE1",
"H c #E0DFE3",
"J c #E2E1E5",
"K c #E6E5E9",
"L c #E8E7EA",
"P c #ECEBEE",
"I c #EFEEF0",
"U c #F0EFF2",
"Y c #F2F2F4",
"T c #F6F7F8",
"R c #F7F8F9",
"E c #F9F9FA",
"W c None",
/* pixels */
"WWWWWWWWWWWWWWWWWWWWWWWWWWWWWWWWWWWWWWWW",
"WWWWWWWWWWWWWWWWWWWWWWWWWWWWWWWWWWWWWWWW",
"WWWWWWWWWWWWWWWWWWWWWWWWWWWWWWWWWWWWWWWW",
"WWWWWWWWWWWWWWWWWWWWWWWWWWWWWWWWWWWWWWWW",
"WWWWWWWWWWWWWWWWWWWWWWWWWWWWWWWWWWWWWWWW",
"WWWWWWWWWWWWWWWW+$%*%%@WWWWWWWWWWWWWWWWW",
"WWWWWWWWWWWWW+-7jVGJJAxw:#WWWWWWWWWWWWWW",
"WWWWWWWWWWWo;fJTEERRREEEPx<@WWWWWWWWWWWW",
"WWWWWWWWWW#0HRTTYTYYYTTTREYp%WWWWWWWWWWW",
"WWWWWWWWW%gYYYYYYYYYTTYTYYYYM=WWWWWWWWWW",
"WWWWWWWW$jYYYYYYYYYYYYYYYYYYTV=WWWWWWWWW",
"WWWWWWW+yYYYYYYUYYYYYYUUYYYYYTv$WWWWWWWW",
"WWWWWWW>KYUYYUIIUYYYYIIYYGPIYYYqoWWWWWWW",
"WWWWWWo$7AYYUIPPIPUIIIIFr*6PIYYF;WWWWWWW",
"WWWWWW+3;*rFUIPPPPPIIJp-%>$jIIIYyoWWWWWW",
"WWWWWo<GAr*-sJILPPPKl>$1fv<;GPPPV%WWWWWW",
"WWWWWOfPx4r7%>bLKKV1$>3,qms%nPKPK<WWWWWW",
"WWWWWOjL: *An->HKK6$ek; $bx%cKJJL8WWWWWW",
"WWWWWo3L< *DD-8HJJp$sn; *Se*ZKJJKuOWWWWW",
"WWWWW;%sM8kG6*BHHHF>;Mz7zk%rKJHJHsOWWWWW",
"WWWWW8e$>86-&fHGHHJv-*28<%6DGHHGHsOWWWWW",
"WWWWW3Ah4>>0bGGGHFGGNr1>3fDHGGJGJuOWWWWW",
"WWWWW>CSSASSCZGGFFFFFFFSDGGJJGGGH8WWWWWW",
"WWWWW*MASSSSCCGGFFFFDDFSSGSsVJHGG<WWWWWW",
"WWWWW#sZSSmbZGGGSGGSSSSGSGC:*fGGN&WWWWWW",
"WWWWWW2ZZZ28HGHGGGGGGGZnCZGS8%3ZyOWWWWWW",
"WWWWWW$lZC:,bZDGHHGZbt,=xSHGg%$g;.oooooW",
"WWWWW+%1BCt*%&-:,,:*&&<aCVr;%1k9-999q<OW",
"WWWWO1k-eCVbgt88335edbCCCx;5xCk=dDGHZ>oW",
"WWWoO*-$$amCCCmCCZCCZCCCCCmCZb5uBCSS6OWW",
"WWWWWWWWo%tCCBBBBCBCCmBCCCCCVbbmNCC0+WWW",
"WWWWWWWWWW$9mmBmmBmBCBmBmBBCCBBNci>+WWWW",
"WWWWWWWWWWW+:ibmNNNVNNmmNBBBVNze;@oWWWWW",
"WWWWWWWWWWWWW#;2rgxbmmmmNVbd9,$+.WWWWWWW",
"WWWWWWWWWWWWWWWoO$%;:,11<:&#OooWWWWWWWWW",
"WWWWWWWWWWWWWWWWWWW..X....WWWWWWWWWWWWWW",
"WWWWWWWWWWWWWWWWWWWWWWWWWWWWWWWWWWWWWWWW",
"WWWWWWWWWWWWWWWWWWWWWWWWWWWWWWWWWWWWWWWW",
"WWWWWWWWWWWWWWWWWWWWWWWWWWWWWWWWWWWWWWWW",
"WWWWWWWWWWWWWWWWWWWWWWWWWWWWWWWWWWWWWWWW"
};
