/* XPM */
static char *fcd90b22844044acd00ca9e3721b2364C13PuI2NX3YIg9N7[] = {
/* columns rows colors chars-per-pixel */
"32 32 23 1 ",
"  c None",
". c #1E1B15",
"X c #44341D",
"o c #4F3D24",
"O c #44392C",
"+ c #644C2D",
"@ c #60513F",
"# c #775A34",
"$ c #725C40",
"% c #7F6A50",
"& c #85643A",
"* c #F75C06",
"= c #F06B1D",
"- c #836847",
"; c #957245",
": c #8E7557",
"> c #FFB32E",
", c #AC8656",
"< c #8C8378",
"1 c #B38F64",
"2 c #9F968C",
"3 c #B1ABA3",
"4 c #C4BDB6",
/* pixels */
"                                ",
"                                ",
"                                ",
"                                ",
"                                ",
"              >                 ",
"              >=                ",
"            > =>                ",
"            =>== >              ",
"             =*>=               ",
"             >**==              ",
"            >****=              ",
"           =******=             ",
"           &;;;,,,1.            ",
"           ####---:.            ",
"            +++$$%.             ",
"             XXXX.              ",
"             oooo.              ",
"              OO.               ",
"              @@.               ",
"             <342.              ",
"              @@.               ",
"              @@.               ",
"              @@.               ",
"              @@.               ",
"              @@.               ",
"                                ",
"                                ",
"                                ",
"                                ",
"                                ",
"                                "
};
