/* XPM */
static char *grave0[] = {
/* columns rows colors chars-per-pixel */
"40 40 119 2 ",
"   c #13141D",
".  c #14141D",
"X  c #15141D",
"o  c #15151D",
"O  c #16151D",
"+  c #17151D",
"@  c #17161D",
"#  c #15151E",
"$  c #16151E",
"%  c #18161D",
"&  c #19171D",
"*  c #18161E",
"=  c #19171E",
"-  c #1A171E",
";  c #1B181E",
":  c #1C181D",
">  c #1C181E",
",  c #1D191E",
"<  c #1F191E",
"1  c #1E191F",
"2  c #231B1D",
"3  c #201A1E",
"4  c #211B1E",
"5  c #221B1E",
"6  c #221B1F",
"7  c #241C1F",
"8  c #281E1F",
"9  c #291F1F",
"0  c #2C201F",
"q  c #2D211F",
"w  c #2E211F",
"e  c #32211C",
"r  c #35241E",
"t  c #3D261B",
"y  c #3E261B",
"u  c #3E271B",
"i  c #39251C",
"p  c #38251E",
"a  c #39261F",
"s  c #3E271C",
"d  c #3F271C",
"f  c #3F281C",
"g  c #271E20",
"h  c #281F20",
"j  c #2A2020",
"k  c #2B2020",
"l  c #2E2120",
"z  c #2E2220",
"x  c #2F2220",
"c  c #312321",
"v  c #322320",
"b  c #332421",
"n  c #342420",
"m  c #362520",
"M  c #392721",
"N  c #3A2720",
"B  c #392822",
"V  c #3B2922",
"C  c #3C2921",
"Z  c #3D2921",
"A  c #3E2921",
"S  c #3F2A22",
"D  c #40281C",
"F  c #40281D",
"G  c #40291D",
"H  c #41291D",
"J  c #42291D",
"K  c #41291E",
"L  c #42291E",
"P  c #422A1E",
"I  c #432A1E",
"U  c #432A1F",
"Y  c #432B1F",
"T  c #442B1E",
"R  c #442B1F",
"E  c #452B1F",
"W  c #452C1F",
"Q  c #462C1F",
"!  c #402A20",
"~  c #412A20",
"^  c #402A21",
"/  c #432B20",
"(  c #442B20",
")  c #432C21",
"_  c #412C23",
"`  c #422C23",
"'  c #442C20",
"]  c #452C20",
"[  c #452D21",
"{  c #462C20",
"}  c #462D20",
"|  c #472D20",
" . c #462D21",
".. c #472D21",
"X. c #472E21",
"o. c #452D22",
"O. c #462E22",
"+. c #472E22",
"@. c #462F23",
"#. c #482E21",
"$. c #492E21",
"%. c #482E22",
"&. c #482F22",
"*. c #492F22",
"=. c #482F23",
"-. c #492F23",
";. c #493023",
":. c #4A3022",
">. c #4A3023",
",. c #4B3023",
"<. c #4D3123",
"1. c #4A3024",
"2. c #4C3124",
"3. c #4D3224",
"4. c #4D3225",
"5. c #4E3224",
"6. c #4E3325",
"7. c #4F3325",
"8. c None",
/* pixels */
"8.8.8.8.8.8.8.8.8.8.8.8.8.8.8.8.8.8.8.8.8.8.8.8.8.8.8.8.8.8.8.8.8.8.8.8.8.8.8.8.",
"8.8.8.8.8.8.8.8.8.8.8.8.8.8.8.8.8.8.8.8.8.8.8.8.8.8.8.8.8.8.8.8.8.8.8.8.8.8.8.8.",
"8.8.8.8.8.8.8.8.8.8.8.8.8.8.8.8.8.8.8.8.8.8.8.8.8.8.8.8.8.8.8.8.8.8.8.8.8.8.8.8.",
"8.8.8.8.8.8.8.8.8.8.8.8.8.8.8.8.8.8.8.8.8.8.8.8.8.8.8.8.8.8.8.8.8.8.8.8.8.8.8.8.",
"8.8.8.8.8.8.8.8.8.8.8.8.8.8.8.8.8.8.8.8.8.8.8.8.8.8.8.8.8.8.8.8.8.8.8.8.8.8.8.8.",
"8.8.8.8.8.8.8.8.8.8.8.8.8.8.8.8.8.8.8.8.8.8.8.8.8.8.8.8.8.8.8.8.8.8.8.8.8.8.8.8.",
"8.8.8.8.8.8.8.8.8.8.8.8.8.8.8.8.8.8.8.8.8.8.8.8.8.8.8.8.8.8.8.8.8.8.8.8.8.8.8.8.",
"8.8.8.8.8.8.8.8.8.8.8.8.8.8.8.8.8.8.8.8.8.8.8.8.8.8.8.8.8.8.8.8.8.8.8.8.8.8.8.8.",
"8.8.8.8.8.8.8.8.8.8.8.8.8.8.8.8.8.8.8.8.8.8.8.8.8.8.8.8.8.8.8.8.8.8.8.8.8.8.8.8.",
"8.8.8.8.8.8.8.8.8.8.8.8.8.8.8.8.8.8.8.8.8.8.8.8.8.8.8.8.8.8.8.8.8.8.8.8.8.8.8.8.",
"8.8.8.8.8.8.8.8.8.8.8.8.8.8.8.8.8.8.8.8.8.8.8.8.8.8.8.8.8.8.8.8.8.8.8.8.8.8.8.8.",
"8.8.8.8.8.8.8.8.8.8.8.8.8.8.8.8.8.8.8.8.8.8.8.8.8.8.8.8.8.8.8.8.8.8.8.8.8.8.8.8.",
"8.8.8.8.8.8.8.8.8.8.8.8.8.8.8.8.8.8.8.8.8.8.8.8.8.8.8.8.8.8.8.8.8.8.8.8.8.8.8.8.",
"8.8.8.8.8.8.8.8.8.8.8.8.8.8.8.8.8.8.8.8.8.8.8.8.8.8.8.8.8.8.8.8.8.8.8.8.8.8.8.8.",
"8.8.8.8.8.8.8.8.8.8.8.8.8.8.8.8.8.8.8.8.8.8.8.8.8.8.8.8.8.8.8.8.8.8.8.8.8.8.8.8.",
"8.8.8.8.8.8.8.8.8.8.8.8.8.8.8.8.8.8.8.8.8.8.8.8.8.8.8.8.8.8.8.8.8.8.8.8.8.8.8.8.",
"8.8.8.8.8.8.8.8.8.8.8.8.8.8.8.8.8.8.8.8.8.8.8.8.8.8.8.8.8.8.8.8.8.8.8.8.8.8.8.8.",
"8.8.8.8.8.8.8.8.8.8.8.8.8.8.8.8.8.8.8.8.8.8.8.8.8.8.8.8.8.8.8.8.8.8.8.8.8.8.8.8.",
"8.8.8.8.8.8.8.8.8.8.8.8.8.8.8.8.8.8.8.8.8.8.8.8.8.8.8.8.8.8.8.8.8.8.8.8.8.8.8.8.",
"8.8.8.8.8.8.8.8.8.8.8.8.8.8.8.8.8.8.8.8.8.8.8.8.8.8.8.8.8.8.8.8.8.8.8.8.8.8.8.8.",
"8.8.8.8.8.8.8.8.8.8.8.8.8.8.8.8.8.8.8.8.8.8.8.8.8.8.8.8.8.8.8.8.8.8.8.8.8.8.8.8.",
"8.8.8.8.8.8.8.8.8.8.8.8.8.8.8.8.8.8.8.8.8.8.8.8.8.8.8.8.8.8.8.8.8.8.8.8.8.8.8.8.",
"8.8.8.8.8.8.8.8.8.8.8.8.8.8.8.8.8.8.8.8.8.8.8.8.8.8.8.8.8.8.8.8.8.8.8.8.8.8.8.8.",
"8.8.8.8.8.8.8.8.8.8.8.8.8.8.8.8.8.8.8.8.8.8.8.8.8.8.8.8.8.8.8.8.8.8.8.8.8.8.8.8.",
"8.8.8.8.8.8.8.8.8.8.8.8.8.8.8.8.8.8.8.8.8.8.8.8.8.8.8.8.8.8.8.8.8.8.8.8.8.8.8.8.",
"8.8.8.8.8.8.8.8.8.8.8.8.8.# , h g ; 8.8.8.8.8.8.8.8.8.8.8.8.8.8.8.8.8.8.8.8.8.8.",
"8.8.8.8.8.8.8.8.8.8.8.8.# k @.5.5.B ; 8.8.# # ; # 8.8.8.8.8.8.8.8.8.8.8.8.8.8.8.",
"8.8.8.8.8.8.8.8.8.8.8.8.7 *.5.1.5.5.x # k B ` ` c = 8.8.8.8.8.8.8.8.8.8.8.8.8.8.",
"8.8.8.8.8.8.8.8.# , # # r ,.,.*.*.1.B 4 O.<.5.5.5.x   8.8.8.8.8.8.8.8.8.8.8.8.8.",
"8.8.8.8.8.8.8.# w ` r = n *.*.*.*.,.S 4 O.,.,.5.5.` = = g b 8 # 8.8.8.8.8.8.8.8.",
"8.8.8.8.8.8.8.; S O.O.x 8 O.*.O.*.*.O.S O.,.,.,.,.O.4 w *.<.,.x # 8.8.8.8.8.8.8.",
"8.8.8.8.8.8.8., f Q O.L a Q Q O.O.Q O.O.*.O.O.*.*.R 4 M *.*.,.O.4 8.8.8.8.8.8.8.",
"8.8.8.8.8.8.8.# a L L R R R O.R O.R R O.Q O.O.O.Q a , L Q *.*.*.r . 8.8.8.8.8.8.",
"8.8.8.8.8.8.8.# 4 i t t D L L L L L R Q Q O.*.O.*.a r Q O.*.*.*.S # 8.8.8.8.8.8.",
"8.8.8.8.8.8.8.8.% e t D t L R L L L Q L L O.Q Q R R R R R Q *.*.! , 8.8.8.8.8.8.",
"8.8.8.8.8.8.8.8.8.t D t t D D t d L L L L Q L L L R L L R R R O.! 8.8.8.8.8.8.8.",
"8.8.8.8.8.8.8.8.8.8.t d t t D L L t t t L R L L D L L 8.8.8.8.8.8.8.8.8.8.8.8.8.",
"8.8.8.8.8.8.8.8.8.8.8.8.8.8.8.8.8.8.t L 8.8.8.8.8.8.8.8.8.8.8.8.8.8.8.8.8.8.8.8.",
"8.8.8.8.8.8.8.8.8.8.8.8.8.8.8.8.8.8.8.8.8.8.8.8.8.8.8.8.8.8.8.8.8.8.8.8.8.8.8.8.",
"8.8.8.8.8.8.8.8.8.8.8.8.8.8.8.8.8.8.8.8.8.8.8.8.8.8.8.8.8.8.8.8.8.8.8.8.8.8.8.8."
};
