/* XPM */
static char *grave3[] = {
/* columns rows colors chars-per-pixel */
"40 40 73 1 ",
"  c #14141D",
". c #19161D",
"X c #1C181D",
"o c #221B1E",
"O c #291F1F",
"+ c #2C201F",
"@ c #33231E",
"# c #3D271C",
"$ c #3F281C",
"% c #171720",
"& c #1C1C25",
"* c #261F22",
"= c #1F2029",
"- c #2B2121",
"; c #22222B",
": c #28242A",
"> c #332420",
", c #392720",
"< c #3D2922",
"1 c #262630",
"2 c #2B2B34",
"3 c #2E2E38",
"4 c #302F37",
"5 c #302F38",
"6 c #32323C",
"7 c #432A1E",
"8 c #452D21",
"9 c #482F22",
"0 c #4B3124",
"q c #3A3A44",
"w c #3E3E48",
"e c #3F404A",
"r c #43434D",
"t c #464751",
"y c #484752",
"u c #474953",
"i c #4A4A54",
"p c #4C4D58",
"a c #4E505A",
"s c #52535D",
"d c #565661",
"f c #565863",
"g c #5A5B66",
"h c #5D5D68",
"j c #5F616B",
"k c #62636E",
"l c #666671",
"z c #696773",
"x c #666873",
"c c #6A6B76",
"v c #6C6F79",
"b c #706F7B",
"n c #6E717B",
"m c #71737E",
"M c #747681",
"N c #767A85",
"B c #797B86",
"V c #7B7E89",
"C c #807E8A",
"Z c #7E818C",
"A c #81838E",
"S c #848692",
"D c #898793",
"F c #878894",
"G c #898A96",
"H c #8D8D99",
"J c #918F9C",
"K c #92919E",
"L c #9693A1",
"P c #9996A3",
"I c #9B98A5",
"U c #9D9BA8",
"Y c None",
/* pixels */
"YYYYYYYYYYYYYYYYYYYYYYYYYYYYYYYYYYYYYYYY",
"YYYYYYYYYYYYYYYYYYYYYYYYYYYYYYYYYYYYYYYY",
"YYYYYYYYYYYYYYYYYYYYYYYYYYYYYYYYYYYYYYYY",
"YYYYYYYYYYYYYYYY%&;211*.YYYYYYYYYYYYYYYY",
"YYYYYYYYYYYYY 1yzMCDGDBli2 YYYYYYYYYYYYY",
"YYYYYYYYYYYY;dDPUIPIIIIIPDs&YYYYYYYYYYYY",
"YYYYYYYYYYY4MLPPIIIPIILPPIPc&YYYYYYYYYYY",
"YYYYYYYYYY;MLLLLPIIIIIILPPPUd YYYYYYYYYY",
"YYYYYYYYY dSkGLLCbLIDDPLPPPIC1YYYYYYYYYY",
"YYYYYYYYY2VV6iHm4dLPl6APPPLPIiYYYYYYYYYY",
"YYYYYYYYYrDSM6r3dJLLJiwHJVJLIc%YYYYYYYYY",
"YYYYYYYY dSSSs wJJJJLDqpywJLLC:YYYYYYYYY",
"YYYYYYYY%kASl3p3gHJJKLk 6ALLLD4YYYYYYYYY",
"YYYYYYYY&xVZsgGc4cHHHb4q6CLKLJwYYYYYYYYY",
"YYYYYYYY;vVVBAFGNVDGHckDrtJJJKyYYYYYYYYY",
"YYYYYYYY;nZZBVSSFGDGGGHJVgDJJKa YYYYYYYY",
"YYYYYYYY=vZZZZZSSFSFFFGGHHHHHKf YYYYYYYY",
"YYYYYYYY=vZZNZZZFSSSSFSFGGGGGHh YYYYYYYY",
"YYYYYYYY=xZMZZZZZSSSFSSFFFFZZFf YYYYYYYY",
"YYYYYYYY=jZmZZZNVSSZZSSSFSFZSFp YYYYYYYY",
"YYYYYYYY%jZNNNZZNVZZSSSSFZFFSFs YYYYYYYY",
"YYYYYYYY%jNZZNZNVVVZZVZSFFFFSZp%YYYYYYYY",
"YYYYYYYY aNNZMZZVVVVZZSZZZFFSFp%YYYYYYYY",
"YYYYYYYY uZMmmmNVVZVVZZSZFZFZFu YYYYYYYY",
"YYYYYYYYYeBBnMxfgmZZVZZZZFZZZZt YYYYYYYY",
"YYYYYYYYY6MBne::-2kAVBMNZZZZZBw YYYYYYYY",
"YYYYYYYYY;vMq+800,2jaq63evZZVNqYYYYYYYYY",
"YYYYYYYYY%gg-<0000+&-><8-3nZVN3YYYYYYYYY",
"YYYYYYYY X22@09000<X90000+umfu=YYYYYYYYY",
"YYYYYYY.+8@X,99999<o800008;2--- YYYYYYYY",
"YYYYYYYX<09++890999<990909o+900- YYYYYYY",
"YYYYYYYX$99<#8999999999999o,9909oYYYYYYY",
"YYYYYYY.#$$77798777707077#X<9990> YYYYYY",
"YYYYYYY.X#$#$777777990000$@97999< YYYYYY",
"YYYYYYYY.@$$$77777777977777779998XYYYYYY",
"YYYYYYYYY#$$#$$$#7777777777797797YYYYYYY",
"YYYYYYYYYY$$$$$$7##77777777YYYYYYYYYYYYY",
"YYYYYYYYYYYYYYYYYY##YYYYYYYYYYYYYYYYYYYY",
"YYYYYYYYYYYYYYYYYYYYYYYYYYYYYYYYYYYYYYYY",
"YYYYYYYYYYYYYYYYYYYYYYYYYYYYYYYYYYYYYYYY"
};
