/* XPM */
static char *grave1[] = {
/* columns rows colors chars-per-pixel */
"40 40 207 2 ",
"   c #101019",
".  c #111119",
"X  c #11121B",
"o  c #12121B",
"O  c #13131C",
"+  c #14141D",
"@  c #15141D",
"#  c #15151D",
"$  c #16151D",
"%  c #17151D",
"&  c #17161D",
"*  c #15151E",
"=  c #18161D",
"-  c #19161D",
";  c #1B181E",
":  c #1C181D",
">  c #1F191D",
",  c #231B1D",
"<  c #201A1E",
"1  c #211B1E",
"2  c #221B1E",
"3  c #231B1E",
"4  c #221B1F",
"5  c #271E1F",
"6  c #291D1D",
"7  c #291F1F",
"8  c #2C201E",
"9  c #2C201F",
"0  c #2D211F",
"q  c #32211C",
"w  c #30211F",
"e  c #33231F",
"r  c #33241F",
"t  c #35241E",
"y  c #3D261B",
"u  c #3E261B",
"i  c #3E271B",
"p  c #39251C",
"a  c #38251E",
"s  c #38261F",
"d  c #39261F",
"f  c #3A271F",
"g  c #3E271C",
"h  c #3F271C",
"j  c #3F281C",
"k  c #171720",
"l  c #191922",
"z  c #1C1C25",
"x  c #1D1D26",
"c  c #1F1E26",
"v  c #211D23",
"b  c #272023",
"n  c #292122",
"m  c #292123",
"M  c #2A2122",
"N  c #2E2220",
"B  c #2F2220",
"V  c #2C2122",
"C  c #26242B",
"Z  c #24232D",
"A  c #25252E",
"S  c #2C282E",
"D  c #322320",
"F  c #362520",
"G  c #392620",
"H  c #392721",
"J  c #392722",
"K  c #3D2921",
"L  c #3E2A21",
"P  c #3C2922",
"I  c #3E2A22",
"U  c #3F2A22",
"Y  c #2D2C36",
"T  c #2E2D37",
"R  c #2E2E37",
"E  c #302D35",
"W  c #322F37",
"Q  c #313039",
"!  c #333139",
"~  c #33333D",
"^  c #36343D",
"/  c #35343E",
"(  c #35353F",
")  c #38363F",
"_  c #40281C",
"`  c #40281D",
"'  c #41291D",
"]  c #42291D",
"[  c #422A1D",
"{  c #422A1E",
"}  c #432A1E",
"|  c #442A1E",
" . c #442B1E",
".. c #442B1F",
"X. c #452B1F",
"o. c #452C1F",
"O. c #402A20",
"+. c #412A20",
"@. c #412B21",
"#. c #432B20",
"$. c #402B22",
"%. c #412B22",
"&. c #432C21",
"*. c #442C20",
"=. c #452C20",
"-. c #462C20",
";. c #462D20",
":. c #472D20",
">. c #462D21",
",. c #472D21",
"<. c #472E21",
"1. c #452D22",
"2. c #452E23",
"3. c #472E22",
"4. c #462E23",
"5. c #482E21",
"6. c #492E21",
"7. c #482E22",
"8. c #482F22",
"9. c #492F22",
"0. c #482F23",
"q. c #492F23",
"w. c #493022",
"e. c #493023",
"r. c #4A3023",
"t. c #493024",
"y. c #4A3024",
"u. c #4A3124",
"i. c #4B3124",
"p. c #4C3124",
"a. c #4D3224",
"s. c #4D3225",
"d. c #4E3224",
"f. c #4E3225",
"g. c #4F3325",
"h. c #373641",
"j. c #383742",
"k. c #3A3942",
"l. c #3D3C46",
"z. c #3E3D48",
"x. c #3F3E48",
"c. c #40404B",
"v. c #42414C",
"b. c #43424D",
"n. c #4A4954",
"m. c #4B4B55",
"M. c #4C4B56",
"N. c #4F4E59",
"B. c #504F5A",
"V. c #51505B",
"C. c #53525C",
"Z. c #55545F",
"A. c #5A5964",
"S. c #61606B",
"D. c #61616D",
"F. c #696874",
"G. c #6C6B77",
"H. c #6D6C78",
"J. c #6E6C79",
"K. c #6F6D7A",
"L. c #706E7A",
"P. c #74727E",
"I. c #757380",
"U. c #777681",
"Y. c #787783",
"T. c #7A7884",
"R. c #7D7B87",
"E. c #7D7B88",
"W. c #7D7D89",
"Q. c #7F7D8A",
"!. c #817F8B",
"~. c #81808C",
"^. c #848390",
"/. c #858390",
"(. c #868491",
"). c #868591",
"_. c #888693",
"`. c #898794",
"'. c #8B8996",
"]. c #8D8B98",
"[. c #8E8C99",
"{. c #8F8D9A",
"}. c #908E9B",
"|. c #92909D",
" X c #93919E",
".X c #9593A0",
"XX c #9593A1",
"oX c #9693A1",
"OX c #9694A1",
"+X c #9794A1",
"@X c #9794A2",
"#X c #9795A2",
"$X c #9795A3",
"%X c #9796A2",
"&X c #9796A3",
"*X c #9896A3",
"=X c #9896A4",
"-X c #9897A4",
";X c #9997A4",
":X c #9A97A4",
">X c #9A97A5",
",X c #9998A5",
"<X c #9A98A5",
"1X c #9B98A5",
"2X c #9A99A6",
"3X c #9B99A6",
"4X c None",
/* pixels */
"4X4X4X4X4X4X4X4X4X4X4X4X4X4X4X4X4X4X4X4X4X4X4X4X4X4X4X4X4X4X4X4X4X4X4X4X4X4X4X4X",
"4X4X4X4X4X4X4X4X4X4X4X4X4X4X4X4X4X4X4X4X4X4X4X4X4X4X4X4X4X4X4X4X4X4X4X4X4X4X4X4X",
"4X4X4X4X4X4X4X4X4X4X4X4X4X4X4X4X4X4X4X4X4X4X4X4X4X4X4X4X4X4X4X4X4X4X4X4X4X4X4X4X",
"4X4X4X4X4X4X4X4X4X4X4X4X4X4X4X4X4X4X4X4X4X4X4X4X4X4X4X4X4X4X4X4X4X4X4X4X4X4X4X4X",
"4X4X4X4X4X4X4X4X4X4X4X4X4X4X4X4X4X4X4X4X4X4X4X4X4X4X4X4X4X4X4X4X4X4X4X4X4X4X4X4X",
"4X4X4X4X4X4X4X4X4X4X4X4X4X4X4X4X4X4X4X4X4X4X4X4X4X4X4X4X4X4X4X4X4X4X4X4X4X4X4X4X",
"4X4X4X4X4X4X4X4X4X4X4X4X4X4X4X4X4X4X4X4X4X4X4X4X4X4X4X4X4X4X4X4X4X4X4X4X4X4X4X4X",
"4X4X4X4X4X4X4X4X4X4X4X4X4X4X4X4X4X4X4X4X4X4X4X4X4X4X4X4X4X4X4X4X4X4X4X4X4X4X4X4X",
"4X4X4X4X4X4X4X4X4X4X4X4X4X4X4X4X4X4X4X4X4X4X4X4X4X4X4X4X4X4X4X4X4X4X4X4X4X4X4X4X",
"4X4X4X4X4X4X4X4X4X4X4X4X4X4X4X4X4X4X4X4X4X4X4X4X4X4X4X4X4X4X4X4X4X4X4X4X4X4X4X4X",
"4X4X4X4X4X4X4X4X4X4X4X4X4X4X4X4X4X4X4X4X4X4X4X4X4X4X4X4X4X4X4X4X4X4X4X4X4X4X4X4X",
"4X4X4X4X4X4X4X4X4X4X4X4X4X4X4X4X4X4X4X4X4X4X4X4X4X4X4X4X4X4X4X4X4X4X4X4X4X4X4X4X",
"4X4X4X4X4X4X4X4X4X4X4X4X4X4X4X4X4X4X4X4X4X4X4X4X4X4X4X4X4X4X4X4X4X4X4X4X4X4X4X4X",
"4X4X4X4X4X4X4X4X4X4X4X4X4X4X4X4X4X4X4X4X4X4X4X4X4X4X4X4X4X4X4X4X4X4X4X4X4X4X4X4X",
"4X4X4X4X4X4X4X4X4X4X4X4X4X4X4X4X4X4X4X4X4X4X4X4X4X4X4X4X4X4X4X4X4X4X4X4X4X4X4X4X",
"4X4X4X4X4X4X4X4X4X4X4X4X4X4X4X4X4X4X4X4X4X4X4X4X4X4X4X4X4X4X4X4X4X4X4X4X4X4X4X4X",
"4X4X4X4X4X4X4X4X4X4X4X4X4X4X4X4X4X4X4X4X4X4X4X4X4X4X4X4X4X4X4X4X4X4X4X4X4X4X4X4X",
"4X4X4X4X4X4X4X4X4X4X4X4X4X4X4X4X4X4X4X4X4X4X4X4X4X4X4X4X4X4X4X4X4X4X4X4X4X4X4X4X",
"4X4X4X4X4X4X4X4X4X4X4X4X4X4X4X4X4X4X4X4X4X4X4X4X4X4X4X4X4X4X4X4X4X4X4X4X4X4X4X4X",
"4X4X4X4X4X4X4X4X4X4X4X4X4X4X4X4X4X4X4X    4X4X4X4X4X4X4X4X4X4X4X4X4X4X4X4X4X4X4X",
"4X4X4X4X4X4X4X4X4X4X4X4X4X4Xo z R l.n.B.C.M.z.R c   4X4X4X4X4X4X4X4X4X4X4X4X4X4X",
"4X4X4X4X4X4X4X4X4X4X4X4X  Z B.Y.{. X.X1X1X;X.X].T.V.Z 4X4X4X4X4X4X4X4X4X4X4X4X4X",
"4X4X4X4X4X4X4X4X4X4X4Xk b.!.*X;X1X;X;X;X;X*X%X%X1X1XR.h.O 4X4X4X4X4X4X4X4X4X4X4X",
"4X4X4X4X4X4X4X4X4X4X* M.]..X*X;X1X1X;X*X;X;X*X%X%X;X1X'.~ 4X4X4X4X4X4X4X4X4X4X4X",
"4X4X4X4X4X4X4X4X4X4Xj.(.].}.!.J.L.`.;X;X*X*X*X*X%X%X;X1XJ.l 4X4X4X4X4X4X4X4X4X4X",
"4X4X4X4X4X4X4X4X4Xz G.E.z.b.S m m E P.1XL.S.}.}.%X&X.X;X}./ 4X4X4X4X4X4X4X4X4X4X",
"4X4X4X4X4X4X4X4X4Xh.(.W.R 7 2.a.a.G E P.n.z / j.n.!..X.X;XA.O 4X4X4X4X4X4X4X4X4X",
"4X4X4X4X4X4X4X4X  c./.D.m 0.y.a.a.a.V c V G @.@.D ! /.%X;XU.c 4X4X4X4X4X4X4X4X4X",
"4X4X4X4X4X4X4X4X* v k.~ t p.p.q.q.y.P 3 0.a.a.a.a.0 Z.'.F.N.z 4X4X4X4X4X4X4X4X4X",
"4X4X4X4X4X4X4X* 7 =.t - F q.8.8.8.y.P 3 2.y.y.a.a.@.C ! m D v * 4X4X4X4X4X4X4X4X",
"4X4X4X4X4X4X4X: @.8.8.0 7 8.8.8.8.8.2.P 8.y.y.y.r.8.3 7 8.a.p.w * 4X4X4X4X4X4X4X",
"4X4X4X4X4X4X4X: { 8.o.@.d o.8.8.8.8.8.8.8.8.8.8.8.=.3 G 8.8.p.8.3 4X4X4X4X4X4X4X",
"4X4X4X4X4X4X4X* d { | | | | 2.o.o.o.o.o.8.8.8.8.o.d : { o.p.r.8.r * 4X4X4X4X4X4X",
"4X4X4X4X4X4X4X* , p y y { { | | { { o.o.o.8.8.8.8.d t o.o.8.8.r.P - 4X4X4X4X4X4X",
"4X4X4X4X4X4X4X4X% q y _ y { { { { { 2.o.o.o.8.| o.| | | o.2.8.8.@.: 4X4X4X4X4X4X",
"4X4X4X4X4X4X4X4X4Xy y _ y y _ _ y { { j { o.| | | { { { | | o.2.{ 4X4X4X4X4X4X4X",
"4X4X4X4X4X4X4X4X4X4Xy h y y { { { y h j { | { { { { { 4X4X4X4X4X4X4X4X4X4X4X4X4X",
"4X4X4X4X4X4X4X4X4X4X4X4X4X4X4X4X4X4Xy h 4X4X4X4X4X4X4X4X4X4X4X4X4X4X4X4X4X4X4X4X",
"4X4X4X4X4X4X4X4X4X4X4X4X4X4X4X4X4X4X4X4X4X4X4X4X4X4X4X4X4X4X4X4X4X4X4X4X4X4X4X4X",
"4X4X4X4X4X4X4X4X4X4X4X4X4X4X4X4X4X4X4X4X4X4X4X4X4X4X4X4X4X4X4X4X4X4X4X4X4X4X4X4X"
};
