/* XPM */
static char *grave2[] = {
/* columns rows colors chars-per-pixel */
"40 40 66 1 ",
"  c #14141D",
". c #19161D",
"X c #1D181D",
"o c #221B1E",
"O c #291F1F",
"+ c #2C201F",
"@ c #32221E",
"# c #3D271C",
"$ c #3F281C",
"% c #171720",
"& c #1A1A23",
"* c #1F1F28",
"= c #241E23",
"- c #2C2121",
"; c #22222B",
": c #29252B",
"> c #332420",
", c #392720",
"< c #3E2A22",
"1 c #2D2C35",
"2 c #2F2F38",
"3 c #33333C",
"4 c #432A1E",
"5 c #452D21",
"6 c #482F22",
"7 c #4B3124",
"8 c #373640",
"9 c #3A3A44",
"0 c #3F3F49",
"q c #403F49",
"w c #43424D",
"e c #474751",
"r c #484752",
"t c #4A4954",
"y c #4E4E59",
"u c #504F59",
"i c #52525D",
"p c #565661",
"a c #575964",
"s c #5C5B66",
"d c #5E5E69",
"f c #62616D",
"g c #646570",
"h c #686772",
"j c #676874",
"k c #6B6A76",
"l c #6E6E79",
"z c #6F707C",
"x c #72727E",
"c c #757581",
"v c #777985",
"b c #7A7A86",
"n c #7D7E8A",
"m c #807E8A",
"M c #7F818D",
"N c #83828E",
"B c #868693",
"V c #898793",
"C c #8A8A96",
"Z c #8E8D99",
"A c #918F9C",
"S c #93919E",
"D c #9694A1",
"F c #9896A3",
"G c #9A98A5",
"H c None",
/* pixels */
"HHHHHHHHHHHHHHHHHHHHHHHHHHHHHHHHHHHHHHHH",
"HHHHHHHHHHHHHHHHHHHHHHHHHHHHHHHHHHHHHHHH",
"HHHHHHHHHHHHHHHHHHHHHHHHHHHHHHHHHHHHHHHH",
"HHHHHHHHHHHHHHHHHHHHHHHHHHHHHHHHHHHHHHHH",
"HHHHHHHHHHHHHHHHHHHHHHHHHHHHHHHHHHHHHHHH",
"HHHHHHHHHHHHHHHHHHHHHHHHHHHHHHHHHHHHHHHH",
"HHHHHHHHHHHHHHHHHHHHHHHHHHHHHHHHHHHHHHHH",
"HHHHHHHHHHHHHHHHHHHHHHHHHHHHHHHHHHHHHHHH",
"HHHHHHHHHHHHHHHHHHHHHHHHHHHHHHHHHHHHHHHH",
"HHHHHHHHHHHHHHHHHHHHHHHHHHHHHHHHHHHHHHHH",
"HHHHHHHHHHHHHHHHHHHHHHHHHHHHHHHHHHHHHHHH",
"HHHHHHHHHHHHHHHHH  %&% HHHHHHHHHHHHHHHHH",
"HHHHHHHHHHHHHH&2tshlxksr2&HHHHHHHHHHHHHH",
"HHHHHHHHHHHH%9kZGFFGGGFFAz8 HHHHHHHHHHHH",
"HHHHHHHHHHH*sAFDFGFFFFFDFGAy%HHHHHHHHHHH",
"HHHHHHHHHH&fDSDDFGGFFFFFFFGSw HHHHHHHHHH",
"HHHHHHHHH eVbSSDCNDGSAFFFFFGb;HHHHHHHHHH",
"HHHHHHHHH;cb3dSNquSFfrASSFSFSqHHHHHHHHHH",
"HHHHHHHHH0BBf1d9qBSDB8iDFZSFFg HHHHHHHHH",
"HHHHHHHH iBNVp 9VAASFb2ffwCSFb=HHHHHHHHH",
"HHHHHHHH dNVx332xAAASDf&1zSDDV1HHHHHHHHH",
"HHHHHHHH&jMMyeBi1xAZAn0;8CSSAZ8HHHHHHHHH",
"HHHHHHHH*kMbzMCCfxCCZftv8pAAAAeHHHHHHHHH",
"HHHHHHHH*zMMvMBCZVVCVBCZzrVAAAy HHHHHHHH",
"HHHHHHHH;zMMbcxffvVBBBCCCBCZASp HHHHHHHH",
"HHHHHHHH*zMMcw:--2jBBBBBVZVCCZs HHHHHHHH",
"HHHHHHHH*kMc9+577,1jaq83ecVBBCs HHHHHHHH",
"HHHHHHHH&aca;67777-*-,<5@2bmBBu HHHHHHHH",
"HHHHHHHH *32@76777,o67777+ybsu8%HHHHHHHH",
"HHHHHHH +5@.@66777<=577775;2--=%HHHHHHHH",
"HHHHHHHX566++677755<667776o+577+ HHHHHHH",
"HHHHHHHX546<#5475756666755o,7775oHHHHHHH",
"HHHHHHH ,4444444444466646,o56667@ HHHHHH",
"HHHHHHH o#$#$4444446466744@45667< HHHHHH",
"HHHHHHHH @$$$44444444764444446665XHHHHHH",
"HHHHHHHHH$$$#$44#4444444444444555HHHHHHH",
"HHHHHHHHHH#$##$44##44444444HHHHHHHHHHHHH",
"HHHHHHHHHHHHHHHHHH##HHHHHHHHHHHHHHHHHHHH",
"HHHHHHHHHHHHHHHHHHHHHHHHHHHHHHHHHHHHHHHH",
"HHHHHHHHHHHHHHHHHHHHHHHHHHHHHHHHHHHHHHHH"
};
