/* XPM */
static char *mixed[] = {
/* columns rows colors chars-per-pixel */
"40 40 148 2 ",
"   c #030202",
".  c #0A0605",
"X  c #060807",
"o  c #0B0807",
"O  c #070908",
"+  c #0B0C0B",
"@  c #130606",
"#  c #170807",
"$  c #190708",
"%  c #130D0C",
"&  c #1B0909",
"*  c #0C100F",
"=  c #14100E",
"-  c #19110F",
";  c #0E1412",
":  c #131614",
">  c #1C1411",
",  c #111916",
"<  c #1C1817",
"1  c #131D1A",
"2  c #1C1B1A",
"3  c #230B0B",
"4  c #2D0E0E",
"5  c #300F0F",
"6  c #221714",
"7  c #241916",
"8  c #241C1A",
"9  c #2C1D19",
"0  c #3B1212",
"q  c #16211E",
"w  c #24201F",
"e  c #2C211D",
"r  c #32221D",
"t  c #172420",
"y  c #192522",
"u  c #1C2A26",
"i  c #1E2E29",
"p  c #1F302B",
"a  c #222221",
"s  c #282727",
"d  c #292827",
"f  c #272828",
"g  c #2B2B2B",
"h  c #332621",
"j  c #3C2923",
"k  c #3B2D29",
"l  c #21322E",
"z  c #233631",
"x  c #273B35",
"c  c #283C36",
"v  c #293E38",
"b  c #313131",
"n  c #3A3730",
"m  c #353932",
"M  c #3D3C3C",
"N  c #451415",
"B  c #4F1717",
"V  c #541919",
"C  c #5D1C1C",
"Z  c #661F1F",
"A  c #442E27",
"S  c #452F28",
"D  c #46302A",
"F  c #4D342D",
"G  c #50362F",
"H  c #443831",
"J  c #4E3A34",
"K  c #413F3E",
"L  c #543A32",
"P  c #5A3E35",
"I  c #6C2121",
"U  c #752424",
"Y  c #7A2525",
"T  c #2C433D",
"R  c #33443C",
"E  c #574037",
"W  c #51433F",
"Q  c #5C4239",
"!  c #64443A",
"~  c #68473D",
"^  c #6B493E",
"/  c #2E4740",
"(  c #2F4942",
")  c #334C45",
"_  c #344F48",
"`  c #37534B",
"'  c #38544C",
"]  c #37584F",
"[  c #39584F",
"{  c #3B5C53",
"}  c #3D6056",
"|  c #3E6258",
" . c #4D4B49",
".. c #564843",
"X. c #5A4842",
"o. c #5F504B",
"O. c #555250",
"+. c #6E4B40",
"@. c #624F49",
"#. c #724E42",
"$. c #795347",
"%. c #7C5548",
"&. c #675651",
"*. c #41675C",
"=. c #446D61",
"-. c #477266",
";. c #4B766A",
":. c #4C796D",
">. c #4F7F71",
",. c #686461",
"<. c #746F6B",
"1. c #797470",
"2. c #832828",
"3. c #8C2B2B",
"4. c #912C2C",
"5. c #982E2E",
"6. c #A43232",
"7. c #A93434",
"8. c #B23636",
"9. c #B73838",
"0. c #BC3939",
"q. c #C33B3B",
"w. c #C83D3D",
"e. c #845A4D",
"r. c #885D4F",
"t. c #8B5F51",
"y. c #8E6153",
"u. c #946556",
"i. c #9D6B5B",
"p. c #A26F5E",
"a. c #A4705F",
"s. c #87716A",
"d. c #967E77",
"f. c #A67161",
"g. c #AC7564",
"h. c #B17967",
"j. c #B57C6A",
"k. c #B97E6C",
"l. c #518274",
"z. c #56897B",
"x. c #588C7E",
"c. c #88827D",
"v. c #A38981",
"b. c #A29B95",
"n. c #BFA198",
"m. c #B0A8A1",
"M. c #DACFC7",
"N. c None",
/* pixels */
"N.N.N.N.N.N.N.N.N.N.N.N.N.N.N.N.N.N.N.N.N.N.N.N.N.N.N.N.N.N.N.N.N.N.N.N.N.N.N.N.",
"N.N.N.N.N.N.N.N.N.N.N.N.N.N.N.N.w.w.w.w.w.w.w.w.w.N.N.N.N.N.N.N.N.N.N.N.N.N.N.N.",
"N.N.N.N.N.N.N.N.N.N.N.N.N.w.w.w.w.w.w.9.3.V I 7.w.w.w.q.N.N.N.N.N.N.N.N.N.N.N.N.",
"N.N.N.N.N.N.N.N.N.N.N.w.w.w.w.N.N.N.V 5 . ; + # C Y V N Z 6.N.N.N.N.N.N.N.N.N.N.",
"N.N.N.N.N.N.N.N.N.w.w.w.w.N.N.N.N.N.. , x ) ( 1     ; 1 ; 4 5.w.N.N.N.N.N.N.N.N.",
"N.N.N.N.N.N.N.N.w.w.w.N.N.N.N.N.  O i _ ' ' ' ) 1 O v ` ( 1 5 8.3.  N.N.N.N.N.N.",
"N.N.N.N.N.N.N.w.w.w.N.N.N.N.N.  + x ` ` ` ` ` ' ( ; 1 _ ' T + I 2.    N.N.N.N.N.",
"N.N.N.N.N.N.w.w.N.N.N.N.N.N.  O x ` ` ` ` ` ` ` ` v , T ' ` i @ 3 + o N.N.N.N.N.",
"N.N.N.N.N.w.w.w.N.N.N.N.N.N.. z ` ` ` ` ` ` ` ` ` ` ) ) ` ` _ u 1 z ; Y N.N.N.N.",
"N.N.N.N.N.w.w.N.N.N.N.N.N.  u ` ` ' ` ` ` ` ` ` ` ` ` ` ` ` ' ` ` ) + I w.N.N.N.",
"N.N.N.N.w.w.N.N.N.N.N.N.  q _ ` ` ` ` ` ` ' ` ` ` ` ` ` z i T ) T y   2.w.N.N.N.",
"N.N.N.w.w.w.N.N.N.N.N.  . q T ` ` ` ` ` ` ` ` ' _ u 1 / y   O + O   N.N.w.w.N.N.",
"N.N.N.w.w.N.N.N.N.N.    . % 1 _ ' ` ` ` ` ` ` ' l % 6 , x O   N.N.N.N.N.w.w.N.N.",
"N.N.w.w.w.w.w.w.w.I   % ! $.% v ' ` ` ` ` ` ' ) ; F u.9 t t 3 9.w.w.w.w.w.w.w.N.",
"N.N.w.w.w.w.w.w.0.0 . ! g.p.7 i ' ` ` ` ` ` ` v % e.k.e.% y % 2.w.w.w.w.w.w.w.N.",
"N.N.w.w.w.w.w.N.N.. S r.D u.j q ` ' ` ` ` ` ` z > y.+.u.L ; ; # N.N.w.w.w.w.w.N.",
"N.w.w.N.w.w.w.q.# 6 $.E ^ ^ G , _ ` ` ` ` ` ` p 7 r.k J e.8 X   N.w.w.w.N.N.w.w.",
"N.w.w.N.N.C C B @ r E s.c.Q E ; _ ` ` ` ` ` ` p 8 e.@.d.L ~ o   U 8.9.N.N.N.w.w.",
"N.w.9.@ X ; y p q , + E &.! Q ; _ ` ' ` ` ` ` z 7 e.X.n...e o . % & .   N.N.w.w.",
"N.0.B * T l.x.x.z.;.` u ; > w ; v / ) _ ` ` ` z > ! 7 a = , v [ { _ x t X 3 q.w.",
"N.U * [ =.} R T _ =.l.z.l.T i ; + + * ; , 1 , + O * q T *.;.*.T f p p p 1 + Y w.",
"N.% q z u l z * e E n R } l.l.l.=.| ` ( v v T ( { -.:.-.` m E ^ > l _ T l + 4 8.",
"N.  ; x R { R $ $.k.p.e.~ E R R ] ] { { { ] ] ` ) R n F ^ p.j.g.r 1 ` ' ' v % I ",
"  X x ` ' ' l 3 u.k.c.h.^ j D ^ +.P P +.+.+.+.#.e.L j #.g.j.j.j.~ + ( ` ` ` 1 $ ",
"  ; _ ` ` ' u 8 a.j.j.^ 9 E w j a.j.j.j.c.j.j.j.$.> s w D f.j.j.r.% v ' ' ' y   ",
"  q ` ` ` ` y r g.j.u.5 W M.,.> ^ j.j.j.k.j.j.a.r s m.1.: ! j.j.u.% z ' ` ` u   ",
"  q ` ` ` ` y r h.k.^ 1 R b.O.q I c.j.j.k.k.j.u.8 g c.<.a h f.j.i.- z ' ` ' t   ",
"  ; _ ` ` ` u r j.c.! 7 z n d 8 #.k.j.j.j.k.j.u.8 f b b g 8 i.k.p.> l ' ' ) ;   ",
"N.. x ` ` ' i e h.k.e.6 m R h 5 y.k.j.j.j.j.j.p.e s K H a j f.j.u.% x ' ` v + N.",
"N.  ; ) ` ' l 6 g.k.h.U 6 8 > ! h.j.j.i.g.j.j.h.^ 8 < 4 e t.j.j.%.+ T ' ) :   N.",
"N.N.  ; v ` T % t.c.j.j.e.Q 5.c.k.c.j.I ~ h.a.j.j.u.e.e.i.j.j.h.A ; ) / 1   N.N.",
"N.N.N.  X q v ; Z j.j.k.k.c.k.k.k.y.Q j S G ~ j.j.j.k.c.j.j.p.P + t i +   N.N.N.",
"N.N.N.N.N.@ * + % %.h.j.j.j.j.j.j.f.%.i.p.t.f.j.j.g.p.u.$.E 7     o & @ N.N.N.N.",
"N.N.N.N.N.N.C 5 . = j G ~ $.y.u.u.p.u.t.e.$.#.! L j 6 % & 3 0 0 C Y 4.N.N.N.N.N.",
"N.N.N.N.N.N.N.8.3.U B 5   . % % = - % % . .         N.N.N.8.q.q.w.w.N.N.N.N.N.N.",
"N.N.N.N.N.N.N.N.N.w.w.0.6.N.N.N.N.N.N.N.N.N.N.N.N.N.N.N.N.w.w.w.N.N.N.N.N.N.N.N.",
"N.N.N.N.N.N.N.N.N.N.w.w.w.w.N.N.N.N.N.N.N.N.N.N.N.N.w.w.w.w.w.N.N.N.N.N.N.N.N.N.",
"N.N.N.N.N.N.N.N.N.N.N.N.w.w.w.w.w.N.N.N.N.N.w.w.w.w.w.w.w.N.N.N.N.N.N.N.N.N.N.N.",
"N.N.N.N.N.N.N.N.N.N.N.N.N.N.w.w.w.w.w.w.w.w.w.w.w.w.N.N.N.N.N.N.N.N.N.N.N.N.N.N.",
"N.N.N.N.N.N.N.N.N.N.N.N.N.N.N.N.N.N.w.w.w.w.N.N.N.N.N.N.N.N.N.N.N.N.N.N.N.N.N.N."
};
