/* XPM */
static char *Nekomancer_chibi_40x40[] = {
/* columns rows colors chars-per-pixel */
"40 40 121 2 ",
"   c #010201",
".  c #090706",
"X  c #050807",
"o  c #060908",
"O  c #0A0D0B",
"+  c #130E0C",
"@  c #0C100F",
"#  c #15100E",
"$  c #18110F",
"%  c #0E1513",
"&  c #151615",
"*  c #1C1411",
"=  c #101916",
"-  c #1C1816",
";  c #131D1A",
":  c #1B1B1A",
">  c #211713",
",  c #241916",
"<  c #231D1A",
"1  c #2B1D19",
"2  c #16221E",
"3  c #25201F",
"4  c #2E211D",
"5  c #32221D",
"6  c #172420",
"7  c #182522",
"8  c #1C2A26",
"9  c #1E2E29",
"0  c #1F302B",
"q  c #212221",
"w  c #272827",
"e  c #272828",
"r  c #2B2B2B",
"t  c #332621",
"y  c #3C2923",
"u  c #3A2D29",
"i  c #21322E",
"p  c #233630",
"a  c #273B35",
"s  c #283D37",
"d  c #293E38",
"f  c #313131",
"g  c #3A3730",
"h  c #353932",
"j  c #3C3C3C",
"k  c #442E27",
"l  c #442F28",
"z  c #453029",
"x  c #4D342D",
"c  c #51372F",
"v  c #433830",
"b  c #4E3A34",
"n  c #403F3E",
"m  c #543B32",
"M  c #5A3E35",
"N  c #2C433D",
"B  c #33443C",
"V  c #574037",
"C  c #51433F",
"Z  c #5C4239",
"A  c #64443A",
"S  c #68473D",
"D  c #6B493E",
"F  c #2E4740",
"G  c #2F4942",
"H  c #334C45",
"J  c #354F48",
"K  c #335047",
"L  c #37534B",
"P  c #38544C",
"I  c #37584F",
"U  c #39584F",
"Y  c #3A5B52",
"T  c #3D6056",
"R  c #3E6258",
"E  c #4D4B49",
"W  c #564743",
"Q  c #5A4741",
"!  c #5F514C",
"~  c #555250",
"^  c #6D4B40",
"/  c #614F49",
"(  c #724E42",
")  c #775146",
"_  c #795347",
"`  c #7C5448",
"'  c #675651",
"]  c #40675C",
"[  c #446D61",
"{  c #477266",
"}  c #4B766A",
"|  c #4C796D",
" . c #4F7F71",
".. c #686461",
"X. c #736F6B",
"o. c #797471",
"O. c #845A4D",
"+. c #885D4F",
"@. c #8A5F51",
"#. c #8D6153",
"$. c #946556",
"%. c #9C6B5B",
"&. c #A26F5E",
"*. c #A4705F",
"=. c #87716A",
"-. c #967E77",
";. c #A67160",
":. c #AC7564",
">. c #B17967",
",. c #B57C6A",
"<. c #B97E6C",
"1. c #518274",
"2. c #56897B",
"3. c #588C7E",
"4. c #88827E",
"5. c #A28981",
"6. c #A29B95",
"7. c #B0A9A2",
"8. c #C0A198",
"9. c #DACFC7",
"0. c None",
/* pixels */
"0.0.0.0.0.0.0.0.0.0.0.0.0.0.0.0.0.0.0.0.0.0.0.0.0.0.0.0.0.0.0.0.0.0.0.0.0.0.0.0.",
"0.0.0.0.0.0.0.0.0.0.0.0.0.0.0.0.0.0.0.0.0.0.0.0.0.0.0.0.0.0.0.0.0.0.0.0.0.0.0.0.",
"0.0.0.0.0.0.0.0.0.0.0.0.0.0.0.0.0.0.0.0.0.  0.0.0.0.0.0.0.0.0.0.0.0.0.0.0.0.0.0.",
"0.0.0.0.0.0.0.0.0.0.0.0.0.0.0.0.0.0.0.  X % O   0.0.    0.0.0.0.0.0.0.0.0.0.0.0.",
"0.0.0.0.0.0.0.0.0.0.0.0.0.0.0.0.0.0.  = s J F ;     % ; @   0.0.0.0.0.0.0.0.0.0.",
"0.0.0.0.0.0.0.0.0.0.0.0.0.0.0.0.  X 9 J L L L J ; X d L H ;   0.0.  0.0.0.0.0.0.",
"0.0.0.0.0.0.0.0.0.0.0.0.0.0.0.  o a L P L L L P H % ; J P N O 0.0.    0.0.0.0.0.",
"0.0.0.0.0.0.0.0.0.0.0.0.0.0.  o a P L L L L L L L d = N P L 9     X X 0.0.0.0.0.",
"0.0.0.0.0.0.0.0.0.0.0.0.0.0.X p L P L L L L L L L L H H L L J 8 ; p O 0.0.0.0.0.",
"0.0.0.0.0.0.0.0.0.0.0.0.0.  8 L L L L L L L L L L L P L L P P L L H O 0.0.0.0.0.",
"0.0.0.0.0.0.0.0.0.0.0.0.  2 J L L L L L L L L L P L L L p e N H N 7 X 0.0.0.0.0.",
"0.0.0.0.0.0.0.0.0.0.0.  X 2 N P L L L L L L L L J 8 ; N 7   X o X   0.0.0.0.0.0.",
"0.0.0.0.0.0.0.0.0.0.    . + = J P L L L L L L L i + * = a o   0.0.0.0.0.0.0.0.0.",
"0.0.0.0.0.0.0.0.0.0.  O A ` + d P L L L L L P J % x $.1 6 6   0.0.0.0.0.0.0.0.0.",
"0.0.0.0.0.0.0.0.0.  . A :.&.> 9 P L L L L L P d O O.<.O.# 7 o 0.0.0.0.0.0.0.0.0.",
"0.0.0.0.0.0.0.0.0.  l +.l $.y 2 L L L L L L P p $ #.^ $.m % %   0.0.0.0.0.0.0.0.",
"0.0.0.0.0.0.0.0.  * ` b ! ^ x % L L L L L L L 0 , +.u m O.1 X   0.0.0.0.0.0.0.0.",
"0.0.0.0.0.0.      y M =.5.Z M % J L L L L L L i 1 O.^ 4.m A o   0.0.0.0.0.0.0.0.",
"0.0.0.0.  % 7 0 6 & O C ' m A % J L L L L L P i - O.Z 8.W 1 O   X X     0.0.0.0.",
"0.0.  @ F  .2.3.2.} K 8 % * 1 % d N H J L L L i * A < q # = s Y Y K a 2 X   0.0.",
"0.0.O I { T G G H [ 1.2.| L 9 % O O @ % = ; = O o # 2 N R | R N e 0 0 0 ; X 0.0.",
"0.  2 p 8 e 0 @ 1 V g B R  .1. .[ R L F a d N H Y { | { P h V ^ * i K N i @   0.",
"0.  % a L L F O ( ,.&.O.M v h H P Y Y R T Y Y K H B h v ( %.>.>.t ; L L L d X 0.",
"  X a L P P p $ $.,.,.>.` y l ^ ( m Z A ^ S ^ ( O.m y ( ;.,.,.,.A O F L L L ;   ",
"  % J L L P 8 , ;.<.,.^ : j q u ;.,.,.,.,.,.<.<.) * e 3 z ;.,.,.+.+ d P P P 7   ",
"  2 L L L L 7 4 ;.,.$., E 9...- ^ ,.,.,.,.,.,.;.5 w 7.o.& A ,.,.$.+ p P L P 8   ",
"  2 L L L L 7 5 :.<.D : n 6.~ : m ,.,.,.,.>.,.$.< e 4.X.7 t :.,.%.+ p P L L 7   ",
"  % J L L L 8 5 :.,.A : f f r : A ,.>.,.,.,.,.$.< e f f e 1 %.,.&.* i P L J %   ",
"0.X s L L P 9 4 ;.<.+.- f j r - @.,.,.,.<.,.,.*.t e j j q y ;.,.$.+ a P P s X 0.",
"0.  = F P P i > ;.,.:.M : : - M >.,.,.%.;.,.,.>.^ < : - 5 @.,.<.` O N P H =   0.",
"0.0.  = s L N O @.,.,.>.+.Z _ :.,.>.,.m A >.;.>.>.$._ _ %.,.,.>.k % J N ;   0.0.",
"0.0.0.  X 2 s % c >.,.,.,.,.,.,.,.$.M y l x ^ >.,.,.<.<.<.,.&.m o 6 9 O   0.0.0.",
"0.0.0.0.0.  O O + ` >.>.,.,.,.,.,.&._ %.&.@.:.,.,.:.&.$._ M ,     X     0.0.0.0.",
"0.0.0.0.0.0.0.    + y c D _ #.$.%.&.$.@.O.) ( A c y > + X         0.0.0.0.0.0.0.",
"0.0.0.0.0.0.0.0.0.0.      . + + + $ + O . X         0.0.0.0.0.0.0.0.0.0.0.0.0.0.",
"0.0.0.0.0.0.0.0.0.0.0.0.0.0.0.0.0.0.0.0.0.0.0.0.0.0.0.0.0.0.0.0.0.0.0.0.0.0.0.0.",
"0.0.0.0.0.0.0.0.0.0.0.0.0.0.0.0.0.0.0.0.0.0.0.0.0.0.0.0.0.0.0.0.0.0.0.0.0.0.0.0.",
"0.0.0.0.0.0.0.0.0.0.0.0.0.0.0.0.0.0.0.0.0.0.0.0.0.0.0.0.0.0.0.0.0.0.0.0.0.0.0.0.",
"0.0.0.0.0.0.0.0.0.0.0.0.0.0.0.0.0.0.0.0.0.0.0.0.0.0.0.0.0.0.0.0.0.0.0.0.0.0.0.0.",
"0.0.0.0.0.0.0.0.0.0.0.0.0.0.0.0.0.0.0.0.0.0.0.0.0.0.0.0.0.0.0.0.0.0.0.0.0.0.0.0."
};
