/* XPM */
static char *Summoning_circle_40x40[] = {
/* columns rows colors chars-per-pixel */
"40 40 2 1 ",
"  c #C83C3C",
". c None",
/* pixels */
"........................................",
"................         ...............",
".............               ............",
"...........    ....  .....    ..........",
".........    .....   .......    ........",
"........   .......    ........   .......",
".......   ........    .........   ......",
"......  .........  .. ...........  .....",
".....   .........  ..  ...........  ....",
".....  ..........  ..  ............  ...",
"....  ..........  .... ............  ...",
"...   ..........  ....  ............  ..",
"...  ...........  ....  ............  ..",
"..                                     .",
"..                                     .",
"..     .......   ......   ........     .",
".  .    ......  ........  .......   ..  ",
".  ...   .....  ........  .....    ...  ",
".  ....   ...  .......... ....   .....  ",
".  ......   .  ..........  ..   ......  ",
".  .......     ..........      .......  ",
".  ........    ...........   .........  ",
".  .........    .........   ..........  ",
".  .........     .......    ..........  ",
".  ........  ...   ...   ..  .........  ",
"..  .......  ....       ...  ........  .",
"..  .......  .....     ....  ........  .",
"..  ......  .......    ..... .......  ..",
"...  .....  .....       ....  ......  ..",
"...  ....  .....   ....   ..  .....  ...",
"....  ...  ....   ......   .  ....   ...",
"....   ..  ...   ........      ...  ....",
".....     ..   ...........     ..  .....",
"......        .............    .   .....",
".......      ................     ......",
".........   .................   ........",
"..........    ............     .........",
"............     .....       ...........",
"..............            ..............",
"..................    .................."
};
