/* XPM */
static char *c17a1011c4894aebb2884f19a8e6fada1hHwmmNKy1SoWiAQ[] = {
/* columns rows colors chars-per-pixel */
"32 32 44 1 ",
"  c #2B1836",
". c #2C1936",
"X c #2E1938",
"o c #311B3B",
"O c #321C3E",
"+ c #2E2235",
"@ c #2F2437",
"# c #322638",
"$ c #362A3E",
"% c #361F42",
"& c #362042",
"* c #382B40",
"= c #3C2E45",
"- c #3B2248",
"; c #3D244B",
": c #40264D",
"> c #413546",
", c #433749",
"< c #43334C",
"1 c #45354E",
"2 c #45394B",
"3 c #463B4C",
"4 c #473C4D",
"5 c #473751",
"6 c #4C3F53",
"7 c #4E4155",
"8 c #54465B",
"9 c #55475C",
"0 c #5A4C63",
"q c #5C4C63",
"w c #5F4F67",
"e c #5B4B6E",
"r c #5E4E71",
"t c #62526A",
"y c #604F72",
"u c #645376",
"i c #6A577A",
"p c #6B597B",
"a c #6D5B7D",
"s c #746082",
"d c #766284",
"f c #7E698B",
"g c #836C90",
"h c #877193",
/* pixels */
":h5:::::::::::::::::::::::::::::",
":hhhhh:ttttttt:hhhhhh:hhhhhh:hhh",
":hhttt:ttttttt:tttttt:tttttt:ttt",
":h5555:ttttttt:555555:tttttt:555",
"::5:::::::::::::::::::::::::::::",
":hh:tttttt:hhhhhh:tttttt:hhhhhh:",
":ht:tttttt:tttttt:tttttt:tttttt:",
":h5:tttttt:tttttt:tttttt:555555:",
"::5:::::::::::::::::::::::::::::",
":hhhhh:ttttttt:tttttt:hhhhhh:hhh",
":hhttt:ttttttt:tttttt:tttttt:ttt",
":h5555:ttttttt:555555:tttttt:555",
"::5:::::::::::::::::::::::::::::",
":hh:tttttt:hhhhhh:tttttt:hhhhhh:",
";gw;wwwwww;wwwwww;wwwwww;wwwwww;",
";g1;wwwwww;wwwwww;wwwwww;111111;",
";;1;;;;;;;;;;;;;;;;;;;;;;;;;;;;;",
"-ffffq-fffffff-000000-ffffff-000",
"-ff0qq-0000000-000000-000000-000",
"-f00qq-<<<<<<<-000000-<<<<<<-000",
"&&=%%%&&&&&&&&&&&&&&&&&&&&&&&&&&",
"&ds%888898&dddddd&dddddd&888888&",
"&ds%888898&888888&888888&888888&",
"Oa6o777777O******O777777O777777O",
"OO$oOOOOOOOOOOOOOOOOOOOOOOOOOOOO",
"OaipaaOaaaaaaaO777777OaaaaaaO777",
"Xuy233.4444444.444444.444444.444",
"Xu2###.#######.444444.######.###",
"XX# ............................",
"rreeeeeeee+eeeeee+eeeeee+eeeeee+",
"r,>>>>>>>>+>>>>>>+>>>>>>+>>>>>>+",
"r@++++++++++++++++++++++++++++++"
};
