/* XPM */
static char *Wall_1_40x40[] = {
/* columns rows colors chars-per-pixel */
"40 40 2 1 ",
"  c #9B9B9B",
". c None",
/* pixels */
"....    ........        .........  .....",
"...       ....            ....       ...",
"..         ..                         ..",
".                                      .",
".                                      .",
"                                        ",
"                                        ",
"                                        ",
"                                        ",
"           .                            ",
"          .                            .",
"         ..                           ..",
".     .....                            .",
"..       ...                           .",
".....      ..                           ",
".....                                   ",
"....                                    ",
"...                                    .",
"..                 ..                   ",
"                  ....                  ",
"                 ......       .....     ",
"                                        ",
"                                        ",
"                                        ",
"                                        ",
"                                        ",
".                                       ",
"..                                      ",
"..                                      ",
".                                      .",
".                                     ..",
".                                     ..",
"                                       .",
"                                        ",
"                                        ",
"                                        ",
"                                        ",
".                                      .",
"..                                     .",
"...       .........   ..... ......  ...."
};
